<?xml version="1.0" encoding="utf-8"?>
<svg height="2500" width="2158" viewBox="0 -3.552713678800501e-15 820 950" xmlns="http://www.w3.org/2000/svg">
  <path d="M 357.943 56.224 C 369.035 56.224 378.765 52.346 387.133 44.589 C 395.502 36.833 399.686 27.813 399.686 17.53 C 399.686 16.401 399.586 14.796 399.387 12.716 C 397.926 12.894 396.83 13.043 396.099 13.162 C 385.871 14.469 376.872 18.957 369.101 26.624 C 361.331 34.292 357.445 42.494 357.445 51.232 C 357.445 52.242 357.611 53.906 357.943 56.224 Z M 397.693 192.544 C 405.597 192.544 414.331 187.7 423.895 178.012 C 433.458 168.324 440.764 156.941 445.812 143.865 C 427.016 135.187 417.618 122.735 417.618 106.508 C 417.618 92.957 425.223 81.367 440.432 71.738 C 429.872 59.909 415.924 53.995 398.59 53.995 C 391.284 53.995 384.61 54.976 378.566 56.938 L 374.78 58.186 L 369.699 59.969 C 366.378 61.098 363.356 61.663 360.633 61.663 C 358.508 61.663 355.718 61.009 352.265 59.701 L 348.379 58.275 L 344.694 56.938 C 339.314 54.916 333.535 53.906 327.359 53.906 C 310.821 53.906 297.538 58.899 287.509 68.884 C 277.48 78.87 272.466 92.036 272.466 108.381 C 272.466 131.383 280.502 152.632 296.575 172.127 C 307.733 185.739 317.928 192.544 327.16 192.544 C 331.078 192.544 334.963 191.861 338.816 190.494 L 343.697 188.711 L 347.582 187.462 C 353.028 185.739 358.043 184.877 362.626 184.877 C 367.474 184.877 373.053 185.977 379.363 188.176 L 382.451 189.246 C 388.893 191.445 393.974 192.544 397.693 192.544 Z" style=""/>
</svg>