<svg width="auto" height="auto" xmlns="http://www.w3.org/2000/svg" id="canvas" viewBox="238.717 290.526 916.883 186.111"><path d="M 383.43,294.35 C 382.07 293.77, 380.33 293.25, 376.65 293.69 C 372.97 294.14, 370.48 294.73, 365.03 296.56 C 359.57 298.39, 355.93 299.61, 349.37 302.86 C 342.82 306.10, 339.09 308.33, 332.27 312.80 C 325.45 317.28, 321.63 320.10, 315.27 325.23 C 308.91 330.36, 305.68 333.30, 300.46 338.46 C 295.25 343.62, 292.62 346.20, 289.21 351.03 C 285.80 355.86, 284.50 358.28, 283.41 362.60 C 282.32 366.92, 282.41 369.02, 283.76 372.63 C 285.10 376.24, 286.69 377.67, 290.15 380.65 C 293.60 383.63, 296.25 384.92, 301.03 387.53 C 305.80 390.14, 309.04 391.26, 314.03 393.71 C 319.02 396.15, 322.14 397.14, 325.98 399.74 C 329.82 402.33, 331.53 403.78, 333.24 406.67 C 334.95 409.56, 335.41 410.76, 334.52 414.19 C 333.63 417.62, 332.52 419.54, 328.80 423.80 C 325.09 428.06, 322.09 430.70, 315.93 435.50 C 309.77 440.30, 305.54 443.12, 297.99 447.80 C 290.44 452.49, 285.64 455.09, 278.18 458.92 C 270.73 462.75, 266.63 464.57, 260.72 466.93 C 254.81 469.30, 251.89 470.17, 248.62 470.76 C 245.36 471.35, 244.72 471.53, 244.39 469.90 C 244.06 468.27, 244.59 466.69, 246.97 462.60 C 249.35 458.51, 251.24 455.52, 256.29 449.45 C 261.35 443.38, 264.67 439.49, 272.24 432.24 C 279.81 424.99, 284.76 420.91, 294.13 413.21 C 303.49 405.51, 308.78 401.41, 319.08 393.73 C 329.38 386.05, 335.15 382.08, 345.63 374.80 C 356.10 367.52, 361.60 363.66, 371.47 357.31 C 381.34 350.97, 386.44 348.06, 394.99 343.07 C 403.54 338.07, 407.67 335.67, 414.20 332.33 C 420.74 328.98, 423.82 327.93, 427.67 326.33 C 431.52 324.72, 432.76 324.19, 433.44 324.30 C 434.13 324.41, 433.12 324.44, 431.09 326.88 C 429.06 329.31, 427.46 331.71, 423.28 336.45 C 419.09 341.20, 416.15 344.34, 410.16 350.60 C 404.17 356.86, 400.19 360.73, 393.31 367.75 C 386.42 374.77, 382.46 378.61, 375.73 385.69 C 369.01 392.78, 365.45 396.73, 359.68 403.16 C 353.91 409.59, 351.12 412.73, 346.90 417.83 C 342.68 422.93, 340.93 424.89, 338.58 428.67 C 336.23 432.44, 335.39 434.02, 335.16 436.70 C 334.93 439.39, 335.74 440.49, 337.44 442.08 C 339.14 443.68, 340.61 444.47, 343.67 444.69 C 346.73 444.91, 348.62 444.32, 352.73 443.18 C 356.84 442.04, 359.32 440.82, 364.20 438.99 C 369.08 437.16, 371.98 436.07, 377.12 434.03 C 382.26 431.99, 384.94 430.96, 389.90 428.80 C 394.86 426.64, 397.39 425.32, 401.94 423.21 C 406.49 421.09, 408.74 420.14, 412.66 418.24 C 416.58 416.34, 418.25 415.43, 421.54 413.70 C 424.84 411.97, 426.20 411.07, 429.12 409.59 C 432.03 408.11, 433.46 407.70, 436.11 406.32 C 438.77 404.94, 440.02 404.26, 442.37 402.70 C 444.73 401.14, 445.94 400.28, 447.88 398.52 C 449.83 396.75, 450.89 395.78, 452.10 393.86 C 453.31 391.95, 453.93 390.84, 453.93 388.94 C 453.94 387.04, 453.52 385.68, 452.12 384.35 C 450.71 383.02, 449.60 382.20, 446.91 382.29 C 444.22 382.37, 442.13 383.10, 438.67 384.77 C 435.21 386.43, 433.33 387.87, 429.60 390.61 C 425.87 393.35, 423.84 395.15, 420.00 398.48 C 416.16 401.81, 413.80 403.80, 410.39 407.26 C 406.99 410.71, 405.38 412.54, 402.97 415.76 C 400.57 418.99, 399.22 420.50, 398.36 423.38 C 397.50 426.26, 397.54 427.99, 398.67 430.17 C 399.79 432.36, 401.18 433.60, 403.99 434.31 C 406.81 435.01, 408.67 434.66, 412.73 433.70 C 416.80 432.73, 419.26 431.78, 424.31 429.48 C 429.36 427.17, 432.48 425.47, 438.00 422.18 C 443.53 418.89, 446.62 416.50, 451.93 413.03 C 457.24 409.56, 460.51 407.60, 464.55 404.83 C 468.60 402.05, 470.75 400.71, 472.15 399.17 C 473.56 397.63, 472.79 396.77, 471.60 397.13 C 470.40 397.49, 468.71 398.65, 466.18 400.99 C 463.66 403.32, 461.71 405.50, 458.98 408.79 C 456.25 412.09, 454.36 414.21, 452.53 417.44 C 450.70 420.66, 449.76 422.38, 449.82 424.92 C 449.88 427.45, 450.76 428.86, 452.82 430.11 C 454.88 431.36, 456.57 431.69, 460.11 431.17 C 463.65 430.66, 465.82 429.42, 470.51 427.54 C 475.20 425.65, 478.26 424.33, 483.57 421.75 C 488.88 419.16, 491.82 417.27, 497.04 414.61 C 502.27 411.96, 505.38 410.34, 509.70 408.47 C 514.03 406.60, 516.46 406.15, 518.67 405.27 C 520.88 404.40, 521.07 403.82, 520.77 404.11 C 520.48 404.39, 519.22 404.82, 517.21 406.69 C 515.20 408.57, 513.69 410.56, 510.73 413.49 C 507.77 416.43, 505.28 418.50, 502.40 421.37 C 499.51 424.25, 497.43 425.76, 496.32 427.88 C 495.21 429.99, 495.45 431.40, 496.85 431.95 C 498.25 432.49, 499.79 432.16, 503.31 430.61 C 506.83 429.06, 509.17 427.05, 514.43 424.19 C 519.69 421.33, 523.39 419.14, 529.61 416.31 C 535.82 413.48, 539.54 411.99, 545.51 410.04 C 551.48 408.10, 554.86 407.24, 559.46 406.58 C 564.06 405.92, 566.15 406.40, 568.51 406.74 C 570.86 407.08, 571.02 407.13, 571.23 408.29 C 571.43 409.46, 570.55 410.29, 569.53 412.57 C 568.52 414.85, 567.69 416.63, 566.16 419.68 C 564.63 422.72, 563.22 424.58, 561.89 427.78 C 560.55 430.99, 559.74 432.81, 559.49 435.68 C 559.25 438.56, 559.29 440.17, 560.65 442.18 C 562.02 444.19, 563.21 445.33, 566.31 445.71 C 569.41 446.10, 571.50 445.40, 576.14 444.12 C 580.78 442.83, 583.45 441.62, 589.53 439.28 C 595.61 436.93, 599.49 435.32, 606.55 432.39 C 613.60 429.46, 617.41 427.71, 624.81 424.63 C 632.21 421.54, 636.33 419.75, 643.54 416.96 C 650.75 414.18, 654.65 412.80, 660.87 410.70 C 667.09 408.61, 670.13 407.71, 674.64 406.48 C 679.15 405.26, 681.12 405.33, 683.43 404.58 C 685.75 403.83, 686.22 403.35, 686.24 402.73 C 686.26 402.11, 685.43 401.53, 683.53 401.48 C 681.64 401.43, 680.01 401.56, 676.76 402.49 C 673.51 403.41, 671.36 404.37, 667.29 406.12 C 663.21 407.87, 660.71 409.00, 656.37 411.25 C 652.04 413.51, 649.73 414.95, 645.61 417.40 C 641.49 419.86, 639.35 421.14, 635.77 423.51 C 632.20 425.88, 630.23 426.90, 627.75 429.25 C 625.27 431.60, 624.18 432.99, 623.37 435.25 C 622.56 437.52, 622.60 438.85, 623.70 440.58 C 624.80 442.32, 626.07 443.49, 628.87 443.92 C 631.66 444.35, 633.63 444.04, 637.68 442.74 C 641.73 441.44, 644.01 440.00, 649.10 437.43 C 654.20 434.86, 657.35 433.38, 663.15 429.90 C 668.95 426.42, 672.05 424.44, 678.11 420.05 C 684.17 415.66, 687.54 412.94, 693.46 407.96 C 699.38 402.99, 702.36 400.20, 707.71 395.16 C 713.06 390.13, 715.61 387.56, 720.20 382.80 C 724.79 378.05, 727.21 375.29, 730.65 371.37 C 734.09 367.46, 736.13 365.73, 737.40 363.24 C 738.68 360.75, 738.18 359.36, 737.02 358.92 C 735.86 358.47, 734.54 358.88, 731.61 361.02 C 728.67 363.15, 726.52 365.38, 722.36 369.60 C 718.20 373.83, 715.40 376.75, 710.80 382.14 C 706.21 387.53, 703.56 390.90, 699.38 396.56 C 695.21 402.22, 693.01 405.09, 689.93 410.44 C 686.84 415.79, 685.54 418.49, 683.96 423.31 C 682.38 428.13, 681.72 430.55, 682.02 434.54 C 682.31 438.53, 683.10 440.67, 685.44 443.28 C 687.77 445.88, 689.71 446.67, 693.70 447.58 C 697.68 448.48, 700.08 448.46, 705.35 447.81 C 710.63 447.16, 713.77 446.42, 720.06 444.32 C 726.35 442.22, 729.96 440.34, 736.78 437.30 C 743.61 434.26, 747.49 432.33, 754.17 429.12 C 760.85 425.91, 764.40 424.04, 770.20 421.27 C 775.99 418.49, 778.79 417.11, 783.16 415.26 C 787.54 413.41, 789.63 413.18, 792.07 412.03 C 794.52 410.87, 795.04 410.24, 795.40 409.48 C 795.75 408.72, 795.03 408.42, 793.86 408.23 C 792.68 408.04, 791.69 407.89, 789.54 408.53 C 787.39 409.17, 786.02 409.80, 783.10 411.43 C 780.18 413.05, 778.33 414.36, 774.95 416.64 C 771.58 418.92, 769.68 420.36, 766.22 422.82 C 762.76 425.28, 760.81 426.43, 757.64 428.94 C 754.46 431.44, 752.32 432.74, 750.32 435.34 C 748.32 437.93, 747.78 439.66, 747.65 441.90 C 747.52 444.14, 748.13 445.25, 749.66 446.53 C 751.20 447.82, 752.50 448.38, 755.33 448.33 C 758.16 448.28, 759.97 447.67, 763.80 446.27 C 767.64 444.87, 770.03 443.70, 774.52 441.34 C 779.00 438.97, 781.60 437.28, 786.22 434.44 C 790.84 431.60, 793.54 429.86, 797.62 427.15 C 801.71 424.43, 804.31 423.03, 806.64 420.87 C 808.96 418.71, 809.33 417.41, 809.27 416.34 C 809.21 415.27, 808.13 415.04, 806.33 415.54 C 804.52 416.04, 802.63 416.80, 800.24 418.84 C 797.85 420.88, 796.34 422.90, 794.37 425.74 C 792.41 428.58, 791.29 430.23, 790.42 433.02 C 789.55 435.81, 789.28 437.40, 790.03 439.71 C 790.78 442.01, 791.86 443.32, 794.18 444.53 C 796.51 445.73, 798.00 445.99, 801.66 445.73 C 805.32 445.46, 807.51 444.69, 812.50 443.21 C 817.50 441.72, 820.51 440.61, 826.64 438.31 C 832.76 436.01, 836.32 434.45, 843.12 431.72 C 849.92 428.99, 853.80 427.35, 860.64 424.66 C 867.49 421.97, 871.11 420.55, 877.32 418.29 C 883.54 416.03, 886.73 414.81, 891.74 413.35 C 896.74 411.89, 899.18 411.70, 902.34 411.00 C 905.49 410.30, 906.41 410.20, 907.51 409.83 C 908.60 409.47, 908.33 409.34, 907.83 409.16 C 907.33 408.98, 906.55 408.85, 905.00 408.95 C 903.46 409.06, 902.54 408.92, 900.11 409.68 C 897.67 410.44, 896.18 411.16, 892.83 412.74 C 889.47 414.33, 887.39 415.49, 883.34 417.60 C 879.29 419.71, 876.84 420.82, 872.56 423.28 C 868.27 425.74, 865.83 427.24, 861.93 429.91 C 858.03 432.57, 855.97 434.04, 853.04 436.62 C 850.12 439.20, 848.50 440.42, 847.31 442.81 C 846.12 445.21, 846.29 446.73, 847.11 448.60 C 847.92 450.48, 849.00 451.54, 851.37 452.19 C 853.75 452.85, 855.50 452.92, 858.98 451.89 C 862.46 450.87, 864.21 449.58, 868.78 447.06 C 873.35 444.53, 876.10 443.03, 881.84 439.27 C 887.59 435.51, 890.83 433.08, 897.49 428.25 C 904.16 423.42, 908.13 420.47, 915.15 415.11 C 922.18 409.76, 925.98 406.81, 932.62 401.47 C 939.25 396.13, 942.69 393.25, 948.34 388.42 C 953.98 383.59, 956.72 381.06, 960.83 377.32 C 964.94 373.59, 967.33 372.15, 968.90 369.73 C 970.48 367.30, 970.09 365.65, 968.71 365.19 C 967.32 364.73, 965.40 365.14, 961.99 367.44 C 958.57 369.74, 956.22 372.23, 951.61 376.69 C 947.01 381.14, 943.89 384.10, 938.96 389.72 C 934.03 395.34, 931.29 398.85, 926.98 404.80 C 922.67 410.76, 920.41 413.98, 917.42 419.50 C 914.42 425.02, 912.98 427.67, 911.99 432.41 C 911.01 437.16, 910.99 439.72, 912.49 443.25 C 913.99 446.78, 915.76 448.21, 919.50 450.06 C 923.23 451.90, 925.77 452.38, 931.16 452.46 C 936.55 452.54, 939.75 452.02, 946.44 450.47 C 953.14 448.92, 957.17 447.54, 964.63 444.70 C 972.10 441.86, 976.38 439.94, 983.75 436.28 C 991.13 432.61, 995.12 430.20, 1001.50 426.38 C 1007.89 422.57, 1011.34 420.56, 1015.69 417.20 C 1020.04 413.84, 1021.96 412.27, 1023.26 409.57 C 1024.56 406.87, 1023.88 405.16, 1022.18 403.72 C 1020.49 402.27, 1018.59 401.97, 1014.78 402.36 C 1010.97 402.75, 1008.09 403.67, 1003.12 405.66 C 998.15 407.65, 994.91 409.40, 989.92 412.32 C 984.93 415.25, 982.27 417.04, 978.17 420.28 C 974.08 423.52, 972.09 425.21, 969.44 428.53 C 966.78 431.85, 965.33 433.70, 964.89 436.90 C 964.45 440.10, 965.02 442.00, 967.22 444.53 C 969.41 447.07, 971.27 448.14, 975.86 449.58 C 980.44 451.01, 983.48 451.36, 990.13 451.72 C 996.79 452.08, 1001.07 451.91, 1009.12 451.38 C 1017.16 450.85, 1021.93 450.15, 1030.37 449.08 C 1038.81 448.01, 1043.72 447.18, 1051.32 446.01 C 1058.92 444.84, 1062.70 444.16, 1068.39 443.22 C 1074.08 442.28, 1076.75 442.06, 1079.76 441.32 C 1082.77 440.58, 1083.42 439.95, 1083.44 439.52 C 1083.45 439.08, 1082.20 438.80, 1079.83 439.15 C 1077.46 439.49, 1074.70 440.02, 1071.58 441.25 C 1068.45 442.49, 1065.95 443.70, 1064.20 445.32 C 1062.45 446.95, 1061.85 448.83, 1062.83 449.38 C 1063.81 449.92, 1065.08 449.50, 1069.10 448.03 C 1073.11 446.57, 1076.41 444.60, 1082.91 442.04 C 1089.41 439.48, 1093.64 437.84, 1101.61 435.23 C 1109.57 432.62, 1115.05 431.12, 1122.73 429.00 C 1130.42 426.87, 1134.35 426.00, 1140.02 424.60 C 1145.70 423.21, 1148.98 422.91, 1151.12 422.03 C 1153.26 421.14, 1153.04 420.10, 1150.72 420.18 C 1148.40 420.26, 1145.23 421.12, 1139.51 422.44 C 1133.79 423.76, 1129.86 424.69, 1122.13 426.78 C 1114.40 428.88, 1108.92 430.42, 1100.87 432.91 C 1092.82 435.40, 1088.51 436.91, 1081.87 439.24 C 1075.23 441.57, 1071.57 442.74, 1067.66 444.55 C 1063.75 446.36, 1062.59 447.14, 1062.31 448.29 C 1062.03 449.44, 1063.83 450.38, 1066.24 450.31 C 1068.65 450.23, 1071.24 449.30, 1074.37 447.91 C 1077.51 446.51, 1079.98 445.10, 1081.90 443.34 C 1083.81 441.57, 1084.49 440.16, 1083.94 439.08 C 1083.40 438.00, 1082.39 437.62, 1079.19 437.93 C 1075.98 438.24, 1073.55 439.46, 1067.91 440.64 C 1062.26 441.82, 1058.53 442.58, 1050.97 443.84 C 1043.41 445.10, 1038.51 445.92, 1030.11 446.96 C 1021.71 447.99, 1016.94 448.65, 1008.98 449.03 C 1001.03 449.41, 996.74 449.43, 990.33 448.87 C 983.93 448.32, 980.98 447.66, 976.95 446.26 C 972.92 444.85, 971.84 443.61, 970.20 441.86 C 968.57 440.12, 968.36 439.73, 968.77 437.52 C 969.19 435.30, 969.98 433.70, 972.27 430.77 C 974.56 427.84, 976.35 425.95, 980.22 422.85 C 984.09 419.76, 986.75 417.99, 991.61 415.28 C 996.47 412.57, 999.76 411.06, 1004.52 409.31 C 1009.29 407.56, 1012.15 407.27, 1015.44 406.53 C 1018.72 405.80, 1019.94 405.38, 1020.94 405.66 C 1021.95 405.94, 1021.84 406.04, 1020.45 407.92 C 1019.06 409.79, 1018.00 411.74, 1013.97 415.04 C 1009.95 418.35, 1006.55 420.57, 1000.32 424.43 C 994.08 428.29, 990.09 430.72, 982.79 434.34 C 975.49 437.96, 971.21 439.84, 963.83 442.55 C 956.45 445.25, 952.39 446.51, 945.87 447.87 C 939.35 449.24, 936.22 449.53, 931.24 449.35 C 926.26 449.18, 924.12 448.48, 920.97 447.00 C 917.82 445.52, 916.71 444.76, 915.48 441.95 C 914.25 439.15, 913.99 437.24, 914.83 432.99 C 915.66 428.74, 916.83 426.05, 919.66 420.70 C 922.48 415.35, 924.68 412.07, 928.94 406.23 C 933.19 400.38, 935.95 396.92, 940.94 391.49 C 945.92 386.07, 949.19 383.29, 953.85 379.09 C 958.52 374.88, 961.29 373.00, 964.27 370.47 C 967.26 367.94, 968.39 367.02, 968.79 366.44 C 969.20 365.85, 968.27 365.76, 966.31 367.54 C 964.34 369.33, 962.84 371.51, 958.96 375.36 C 955.08 379.21, 952.44 381.88, 946.92 386.80 C 941.40 391.71, 937.97 394.59, 931.37 399.93 C 924.78 405.27, 920.98 408.21, 913.94 413.51 C 906.90 418.81, 902.91 421.74, 896.20 426.43 C 889.49 431.12, 886.21 433.49, 880.40 436.97 C 874.60 440.46, 871.73 441.80, 867.17 443.84 C 862.62 445.88, 860.67 446.33, 857.63 447.15 C 854.60 447.98, 853.59 447.88, 852.00 447.95 C 850.42 448.02, 849.94 448.10, 849.72 447.50 C 849.49 446.91, 849.66 446.55, 850.88 445.00 C 852.11 443.44, 853.21 442.15, 855.84 439.73 C 858.48 437.32, 860.34 435.58, 864.05 432.94 C 867.75 430.29, 870.15 428.83, 874.37 426.52 C 878.59 424.20, 881.07 423.14, 885.14 421.35 C 889.21 419.55, 891.34 418.63, 894.73 417.54 C 898.12 416.45, 899.64 416.70, 902.09 415.90 C 904.54 415.11, 905.53 414.73, 906.97 413.55 C 908.41 412.38, 909.14 411.28, 909.28 410.03 C 909.43 408.77, 909.24 407.83, 907.69 407.26 C 906.14 406.70, 904.91 406.55, 901.54 407.22 C 898.17 407.89, 895.87 408.85, 890.86 410.60 C 885.84 412.36, 882.68 413.62, 876.47 415.99 C 870.25 418.37, 866.64 419.79, 859.79 422.48 C 852.94 425.16, 849.04 426.79, 842.21 429.42 C 835.39 432.04, 831.80 433.54, 825.67 435.59 C 819.55 437.64, 816.45 438.59, 811.58 439.67 C 806.72 440.76, 804.49 440.82, 801.35 441.00 C 798.21 441.18, 797.40 441.02, 795.87 440.58 C 794.33 440.14, 793.77 439.85, 793.68 438.79 C 793.59 437.73, 794.22 437.09, 795.43 435.28 C 796.63 433.48, 797.78 432.12, 799.72 429.77 C 801.66 427.42, 803.36 425.85, 805.14 423.54 C 806.92 421.23, 807.97 419.83, 808.63 418.22 C 809.28 416.62, 809.38 415.66, 808.42 415.49 C 807.47 415.32, 806.43 415.62, 803.85 417.35 C 801.27 419.08, 799.41 421.31, 795.53 424.14 C 791.64 426.96, 788.97 428.74, 784.42 431.49 C 779.88 434.23, 777.22 435.83, 772.80 437.86 C 768.37 439.89, 765.90 440.63, 762.30 441.66 C 758.70 442.69, 757.01 442.53, 754.79 442.99 C 752.56 443.46, 751.91 444.04, 751.19 443.97 C 750.47 443.91, 750.56 443.77, 751.17 442.68 C 751.77 441.59, 752.37 440.61, 754.21 438.53 C 756.05 436.46, 757.49 434.75, 760.38 432.30 C 763.27 429.86, 765.24 428.63, 768.65 426.31 C 772.06 423.99, 773.99 422.59, 777.44 420.72 C 780.88 418.85, 782.93 418.28, 785.88 416.95 C 788.82 415.62, 790.29 415.33, 792.16 414.07 C 794.03 412.81, 794.64 411.84, 795.23 410.65 C 795.82 409.45, 796.05 408.59, 795.11 408.10 C 794.17 407.60, 793.18 407.30, 790.54 408.18 C 787.89 409.06, 786.17 410.33, 781.88 412.50 C 777.59 414.66, 774.84 416.11, 769.09 419.01 C 763.34 421.91, 759.81 423.79, 753.15 427.00 C 746.49 430.21, 742.59 432.12, 735.80 435.06 C 729.01 437.99, 725.37 439.78, 719.21 441.67 C 713.05 443.57, 709.94 444.09, 705.00 444.54 C 700.06 444.99, 697.88 444.70, 694.53 443.93 C 691.18 443.17, 690.06 442.64, 688.24 440.71 C 686.42 438.77, 685.74 437.57, 685.44 434.26 C 685.14 430.96, 685.40 428.69, 686.75 424.19 C 688.10 419.68, 689.24 416.94, 692.18 411.72 C 695.11 406.50, 697.26 403.61, 701.42 398.07 C 705.57 392.53, 708.26 389.20, 712.95 384.02 C 717.63 378.83, 720.56 376.12, 724.83 372.14 C 729.09 368.17, 731.82 366.61, 734.28 364.15 C 736.74 361.68, 737.12 360.41, 737.14 359.81 C 737.15 359.21, 736.14 359.24, 734.38 361.16 C 732.62 363.08, 731.52 365.43, 728.33 369.43 C 725.14 373.43, 722.87 376.32, 718.44 381.14 C 714.01 385.97, 711.47 388.53, 706.19 393.55 C 700.91 398.57, 697.92 401.35, 692.04 406.27 C 686.15 411.18, 682.80 413.88, 676.75 418.14 C 670.70 422.40, 667.61 424.32, 661.80 427.56 C 655.98 430.81, 652.74 432.18, 647.67 434.36 C 642.60 436.53, 640.13 437.51, 636.44 438.44 C 632.75 439.37, 631.30 438.92, 629.22 439.01 C 627.14 439.09, 626.50 439.26, 626.03 438.86 C 625.56 438.46, 625.88 438.27, 626.85 437.01 C 627.82 435.75, 628.65 434.64, 630.87 432.57 C 633.09 430.50, 634.64 429.07, 637.96 426.66 C 641.27 424.24, 643.44 422.90, 647.46 420.50 C 651.48 418.09, 653.76 416.67, 658.05 414.65 C 662.34 412.63, 664.83 411.73, 668.91 410.40 C 672.98 409.08, 675.25 409.01, 678.42 408.01 C 681.59 407.02, 683.14 406.55, 684.76 405.41 C 686.37 404.27, 686.91 403.20, 686.50 402.31 C 686.09 401.42, 685.23 400.72, 682.69 400.98 C 680.14 401.24, 678.30 402.10, 673.77 403.59 C 669.25 405.08, 666.28 406.16, 660.08 408.43 C 653.87 410.70, 649.97 412.10, 642.75 414.94 C 635.53 417.78, 631.40 419.57, 623.98 422.61 C 616.55 425.65, 612.73 427.37, 605.64 430.14 C 598.55 432.91, 594.60 434.42, 588.51 436.47 C 582.43 438.52, 579.61 439.48, 575.23 440.38 C 570.86 441.29, 568.99 441.00, 566.64 441.01 C 564.29 441.02, 563.91 441.29, 563.49 440.42 C 563.06 439.55, 563.81 438.72, 564.51 436.64 C 565.21 434.56, 565.63 432.91, 566.97 430.01 C 568.31 427.11, 569.70 425.33, 571.21 422.14 C 572.72 418.95, 573.96 417.04, 574.52 414.06 C 575.08 411.09, 575.06 409.45, 574.00 407.26 C 572.95 405.06, 572.26 403.83, 569.26 403.08 C 566.25 402.32, 563.89 402.62, 558.97 403.49 C 554.04 404.36, 550.75 405.38, 544.64 407.41 C 538.53 409.44, 534.80 410.92, 528.43 413.64 C 522.06 416.36, 518.20 418.37, 512.79 421.01 C 507.39 423.65, 504.63 424.98, 501.40 426.85 C 498.18 428.73, 497.10 429.62, 496.67 430.38 C 496.23 431.13, 497.34 431.67, 499.22 430.64 C 501.10 429.62, 503.03 427.96, 506.06 425.26 C 509.10 422.56, 511.38 420.22, 514.40 417.14 C 517.42 414.05, 519.55 412.49, 521.15 409.82 C 522.75 407.15, 523.08 405.45, 522.41 403.79 C 521.74 402.13, 520.63 401.22, 517.80 401.52 C 514.97 401.82, 512.71 403.22, 508.27 405.28 C 503.84 407.35, 500.85 409.16, 495.63 411.85 C 490.41 414.55, 487.47 416.37, 482.17 418.77 C 476.87 421.16, 473.72 422.28, 469.13 423.83 C 464.55 425.38, 462.26 425.86, 459.27 426.52 C 456.28 427.18, 455.36 427.36, 454.19 427.12 C 453.03 426.89, 452.92 426.73, 453.45 425.35 C 453.98 423.98, 454.88 422.84, 456.84 420.24 C 458.79 417.64, 460.59 415.52, 463.24 412.35 C 465.89 409.18, 468.10 407.23, 470.09 404.40 C 472.07 401.57, 473.11 399.74, 473.19 398.18 C 473.27 396.63, 472.60 395.85, 470.49 396.61 C 468.37 397.37, 466.63 399.19, 462.60 401.99 C 458.57 404.79, 455.54 407.09, 450.32 410.61 C 445.11 414.14, 441.98 416.48, 436.51 419.61 C 431.03 422.74, 427.88 424.30, 422.94 426.26 C 418.00 428.23, 415.43 428.72, 411.80 429.44 C 408.17 430.16, 406.81 430.00, 404.78 429.85 C 402.75 429.70, 402.12 429.69, 401.67 428.69 C 401.22 427.69, 401.63 426.97, 402.53 424.85 C 403.44 422.74, 404.12 421.11, 406.21 418.10 C 408.30 415.08, 409.76 413.15, 412.99 409.78 C 416.22 406.42, 418.57 404.41, 422.36 401.27 C 426.16 398.13, 428.28 396.41, 431.98 394.08 C 435.67 391.76, 437.69 390.89, 440.82 389.63 C 443.95 388.36, 445.79 388.30, 447.64 387.78 C 449.48 387.26, 449.60 386.93, 450.06 387.03 C 450.52 387.13, 450.37 387.56, 449.95 388.29 C 449.52 389.02, 449.09 389.49, 447.93 390.70 C 446.77 391.91, 445.87 392.83, 444.15 394.35 C 442.43 395.86, 441.40 396.76, 439.31 398.29 C 437.21 399.81, 436.14 400.48, 433.68 401.97 C 431.21 403.46, 429.80 404.06, 426.99 405.73 C 424.19 407.40, 422.84 408.44, 419.66 410.32 C 416.48 412.21, 414.92 413.15, 411.10 415.15 C 407.28 417.15, 405.06 418.17, 400.58 420.34 C 396.09 422.50, 393.60 423.85, 388.67 425.98 C 383.75 428.12, 381.10 429.11, 375.97 431.01 C 370.83 432.91, 367.85 433.94, 362.99 435.50 C 358.13 437.06, 355.51 438.00, 351.66 438.82 C 347.80 439.64, 346.19 439.43, 343.72 439.59 C 341.25 439.75, 340.37 440.12, 339.29 439.62 C 338.22 439.12, 338.00 439.00, 338.35 437.11 C 338.70 435.21, 338.99 433.72, 341.04 430.14 C 343.10 426.57, 344.61 424.36, 348.62 419.21 C 352.63 414.07, 355.40 410.87, 361.08 404.41 C 366.76 397.95, 370.31 393.98, 377.02 386.92 C 383.74 379.85, 387.69 376.02, 394.65 369.08 C 401.61 362.14, 405.65 358.35, 411.82 352.23 C 417.98 346.10, 421.04 343.13, 425.46 338.45 C 429.88 333.76, 432.19 331.88, 433.92 328.81 C 435.64 325.73, 435.52 324.04, 434.08 323.06 C 432.64 322.07, 430.87 322.37, 426.72 323.88 C 422.56 325.40, 419.80 327.05, 413.29 330.62 C 406.79 334.19, 402.72 336.63, 394.20 341.74 C 385.69 346.85, 380.59 349.77, 370.73 356.17 C 360.86 362.56, 355.37 366.43, 344.88 373.73 C 334.39 381.03, 328.62 384.99, 318.28 392.66 C 307.94 400.32, 302.64 404.41, 293.19 412.06 C 283.73 419.71, 278.74 423.75, 271.00 430.92 C 263.26 438.09, 259.81 441.86, 254.49 447.91 C 249.18 453.95, 246.90 456.62, 244.42 461.16 C 241.93 465.70, 241.18 468.11, 242.09 470.59 C 243.00 473.08, 245.06 473.87, 248.97 473.58 C 252.88 473.29, 255.60 471.70, 261.63 469.15 C 267.67 466.59, 271.65 464.69, 279.15 460.78 C 286.64 456.87, 291.46 454.28, 299.10 449.61 C 306.75 444.93, 311.02 442.19, 317.38 437.39 C 323.74 432.60, 326.85 430.14, 330.89 425.65 C 334.93 421.17, 336.53 419.10, 337.58 414.98 C 338.63 410.85, 338.09 408.63, 336.15 405.03 C 334.20 401.44, 331.98 399.86, 327.84 397.01 C 323.71 394.16, 320.51 393.26, 315.47 390.78 C 310.43 388.29, 307.26 387.13, 302.64 384.58 C 298.02 382.03, 295.53 380.67, 292.36 378.04 C 289.20 375.41, 288.04 374.38, 286.82 371.43 C 285.61 368.48, 285.38 367.10, 286.27 363.30 C 287.16 359.51, 288.12 357.12, 291.28 352.46 C 294.43 347.81, 296.96 345.14, 302.03 340.02 C 307.09 334.91, 310.31 331.95, 316.60 326.88 C 322.89 321.81, 326.70 319.01, 333.48 314.68 C 340.26 310.35, 344.01 308.23, 350.51 305.22 C 357.01 302.22, 360.66 301.21, 366.00 299.66 C 371.34 298.11, 373.71 298.10, 377.21 297.48 C 380.70 296.87, 382.23 297.21, 383.47 296.59 C 384.72 295.96, 384.80 294.92, 383.43 294.35" style="stroke: black; fill: black;"/></svg>