<?xml version="1.0" standalone="no"?>
<!DOCTYPE svg PUBLIC "-//W3C//DTD SVG 20010904//EN"
 "http://www.w3.org/TR/2001/REC-SVG-20010904/DTD/svg10.dtd">
<svg version="1.0" xmlns="http://www.w3.org/2000/svg"
 width="100.000000pt" height="100.000000pt" viewBox="0 0 300.000000 300.000000"
 preserveAspectRatio="xMidYMid meet">
<metadata>
Created by potrace 1.10, written by Peter Selinger 2001-2011
</metadata>
<g transform="translate(0.000000,300.000000) scale(0.100000,-0.100000)"
fill="#000000" stroke="none">
<path d="M447 1766 c-68 -25 -107 -76 -107 -141 0 -74 37 -115 135 -148 87
-30 114 -60 95 -107 -15 -36 -37 -50 -80 -50 -30 0 -80 37 -80 60 0 5 -20 10
-45 10 -25 0 -45 -5 -45 -10 0 -22 30 -68 64 -98 114 -100 304 2 271 145 -12
55 -59 93 -144 119 -88 26 -114 72 -70 128 30 38 82 36 119 -4 25 -27 34 -30
90 -30 45 0 60 -3 57 -12 -2 -7 -12 -12 -22 -10 -17 3 -75 -43 -75 -61 0 -5
21 -7 46 -5 l46 3 2 -120 c2 -135 10 -159 62 -181 41 -17 74 -10 104 21 22 23
22 25 6 50 -16 24 -17 25 -42 8 -25 -16 -27 -16 -41 2 -10 15 -13 46 -11 120
l3 100 43 -3 42 -4 0 37 0 37 -42 -4 c-27 -2 -43 1 -45 10 -3 8 9 12 41 12 45
0 46 1 46 33 l0 32 -46 -4 c-46 -3 -47 -3 -40 23 6 25 5 26 -39 26 -43 0 -45
-1 -39 -25 6 -24 4 -25 -35 -25 -28 0 -44 5 -47 15 -8 21 -63 52 -104 59 -20
3 -52 0 -73 -8z m323 -81 c10 -13 10 -19 -5 -35 -17 -19 -17 -21 -1 -39 15
-16 15 -22 4 -40 -16 -26 -30 -27 -45 -2 -9 15 -8 23 3 40 13 19 13 23 0 43
-26 36 16 67 44 33z"/>
<path d="M2082 1680 c2 -39 0 -70 -4 -70 -4 0 -19 5 -32 12 -53 24 -156 -37
-156 -93 0 -28 47 -25 76 6 26 29 60 32 92 9 19 -13 22 -24 22 -90 0 -91 -18
-133 -57 -134 -22 0 -53 39 -53 65 0 31 -32 50 -60 35 -46 -24 -11 -130 54
-163 31 -16 41 -17 66 -7 15 6 31 18 34 26 8 22 25 17 19 -6 -5 -18 0 -20 36
-20 l41 0 0 250 0 250 -41 0 -41 0 4 -70z m46 -124 c-3 -33 -15 -33 -30 -1 -8
19 -8 28 2 40 12 14 15 14 22 2 4 -8 7 -27 6 -41z m-12 -254 c-4 -3 -11 -1
-18 6 -8 8 -8 15 3 28 13 16 14 16 17 -5 2 -13 1 -25 -2 -29z"/>
<path d="M2190 1500 l0 -250 25 0 25 0 0 250 0 250 -25 0 -25 0 0 -250z"/>
<path d="M964 1611 c-27 -17 -74 -77 -74 -95 0 -17 62 -4 84 19 14 14 37 25
51 25 24 0 65 -31 65 -48 0 -5 -28 -20 -62 -33 -33 -13 -77 -39 -96 -56 -32
-30 -34 -36 -29 -75 11 -84 108 -129 164 -76 l23 21 0 -21 c0 -19 5 -22 45
-22 l45 0 -4 140 c-4 114 -8 147 -23 173 -36 62 -128 85 -189 48z m168 -136
c6 -28 -8 -43 -24 -27 -11 11 -2 52 12 52 4 0 10 -11 12 -25z m-60 -124 c-24
-33 -53 -37 -77 -11 -17 19 -17 22 -3 37 9 8 34 25 55 37 l38 22 3 -30 c2 -18
-4 -39 -16 -55z m64 -23 c-3 -24 -21 -35 -30 -19 -8 12 15 52 26 45 4 -3 6
-15 4 -26z"/>
<path d="M1365 1614 c-16 -8 -38 -25 -47 -37 l-18 -22 0 33 c0 31 -2 32 -40
32 l-40 0 0 -185 0 -185 40 0 40 0 0 98 c0 53 5 114 10 134 20 69 91 99 141
59 23 -18 24 -24 24 -155 l0 -136 43 0 42 0 0 133 c0 150 -11 186 -69 224 -40
27 -84 29 -126 7z m-77 -80 c1 -10 -4 -28 -12 -39 -14 -19 -15 -17 -16 23 0
31 4 42 13 40 6 -3 13 -13 15 -24z"/>
<path d="M1673 1615 c-56 -24 -73 -66 -73 -178 0 -105 12 -143 52 -171 32 -23
78 -20 105 6 l23 21 0 -21 c0 -19 6 -22 40 -22 l40 0 0 143 c0 123 -3 146 -20
174 -35 58 -101 77 -167 48z m88 -76 c19 -19 21 -30 17 -101 -3 -70 -6 -82
-27 -99 -21 -17 -26 -18 -45 -6 -18 13 -21 26 -24 103 -3 81 -1 91 19 107 27
22 34 22 60 -4z m55 -237 c-4 -3 -11 -1 -17 5 -8 8 -7 17 3 32 13 22 13 22 16
-5 2 -14 1 -28 -2 -32z"/>
<path d="M2341 1613 c-56 -28 -71 -64 -71 -173 0 -85 3 -99 25 -132 49 -73
157 -84 215 -23 l24 25 -25 18 c-28 20 -26 20 -62 2 -25 -12 -32 -12 -55 1
-15 8 -27 21 -27 28 0 8 26 29 59 47 82 45 101 66 101 114 0 83 -102 135 -184
93z m93 -72 c22 -24 14 -41 -39 -73 l-45 -27 0 39 c0 27 7 47 20 60 25 25 42
25 64 1z m-101 -105 c22 -17 22 -39 -2 -60 -17 -15 -19 -15 -25 -1 -8 23 -8
75 2 75 4 0 15 -7 25 -14z"/>
<path d="M2558 1435 l-3 -185 42 0 41 0 4 124 c3 107 6 129 24 152 24 33 47
44 37 18 -4 -11 0 -22 12 -30 26 -19 42 -17 65 6 66 66 -44 138 -112 73 l-28
-27 0 27 c0 25 -3 27 -40 27 l-39 0 -3 -185z m69 109 c3 -8 -2 -23 -11 -32
-15 -15 -16 -14 -16 16 0 33 16 43 27 16z"/>
<path d="M1346 1508 c-12 -17 -16 -50 -16 -140 l0 -118 43 0 42 0 -3 132 c-4
130 -8 147 -39 148 -6 0 -19 -10 -27 -22z"/>
</g>
</svg>
