<?xml version="1.0" standalone="no"?>
<!DOCTYPE svg PUBLIC "-//W3C//DTD SVG 20010904//EN"
 "http://www.w3.org/TR/2001/REC-SVG-20010904/DTD/svg10.dtd">
<svg version="1.0" xmlns="http://www.w3.org/2000/svg"
 width="200.000000pt" height="130.000000pt" viewBox="0 0 300.000000 300.000000"
 preserveAspectRatio="xMidYMid meet">
<metadata>
Created by potrace 1.10, written by Peter Selinger 2001-2011
</metadata>
<g transform="translate(0.000000,300.000000) scale(0.100000,-0.100000)"
fill="#000000" stroke="none">
<path d="M370 1624 c-70 -64 -49 -129 60 -184 43 -22 60 -37 68 -59 20 -58
-34 -79 -104 -42 -54 29 -88 6 -58 -38 19 -27 105 -71 138 -71 71 0 113 56
102 135 -10 64 -40 103 -100 131 -30 13 -59 31 -66 39 -13 15 -5 55 11 55 6 0
7 -6 3 -12 -5 -9 -2 -8 9 1 16 12 24 11 63 -8 25 -13 48 -21 51 -18 12 12 -10
68 -34 87 -42 33 -95 27 -143 -16z m142 -325 c-18 -16 -42 -29 -55 -29 -17 1
-12 5 19 20 23 11 45 27 48 36 4 9 10 14 14 10 4 -4 -8 -21 -26 -37z"/>
<path d="M575 1649 c-4 -5 -4 -21 -1 -35 5 -19 13 -24 36 -24 l30 0 2 -165 3
-166 30 -19 c17 -10 35 -16 40 -12 6 4 8 74 5 185 -5 162 -4 177 12 177 9 0
20 -4 23 -10 3 -5 20 -10 36 -10 29 0 30 1 24 33 -4 17 -12 38 -17 45 -13 15
-214 17 -223 1z m194 -34 c2 -3 -12 -5 -32 -5 -23 0 -37 -5 -38 -12 -1 -23 -9
-62 -14 -66 -2 -2 -7 13 -11 33 -5 26 -9 33 -15 23 -7 -10 -9 -9 -9 4 0 9 -3
18 -7 21 -5 2 -3 3 2 2 6 -1 19 1 30 6 19 8 84 3 94 -6z"/>
<path d="M935 1648 c-67 -189 -125 -366 -125 -378 0 -16 43 -40 73 -40 15 0
18 7 17 43 -1 23 -1 47 -1 52 1 6 27 10 58 9 l57 0 13 -41 c10 -29 23 -45 46
-56 40 -20 47 -15 37 26 -11 51 -122 370 -133 385 -5 6 -16 12 -24 12 -7 0
-16 -6 -18 -12z m46 -103 c20 -42 20 -47 5 -58 -14 -10 -15 -17 -5 -44 6 -18
19 -35 29 -38 10 -3 20 -17 22 -30 5 -22 3 -24 -21 -18 -36 8 -37 11 -15 27
18 14 18 15 -11 21 -56 12 -55 10 -39 67 16 62 17 71 5 64 -4 -3 -14 -26 -21
-51 -7 -25 -15 -43 -18 -41 -4 5 39 146 45 146 1 0 13 -20 24 -45z m-35 -154
c28 -22 22 -31 -23 -31 -27 0 -35 -5 -48 -32 -8 -18 -13 -26 -11 -17 29 106
38 115 82 80z"/>
<path d="M1134 1647 c-2 -7 -3 -97 -2 -200 l3 -188 30 -19 c36 -23 63 -13 47
16 -11 22 -23 229 -12 217 4 -4 29 -56 55 -115 39 -88 53 -109 81 -124 18 -10
35 -16 36 -14 2 3 1 102 -2 220 l-5 215 -30 0 -30 0 -3 -85 c-4 -103 4 -158
21 -141 19 19 23 13 21 -36 -3 -86 -4 -94 -14 -88 -10 6 -60 98 -60 111 0 3 7
0 16 -7 15 -12 16 -11 9 11 -4 14 -30 73 -58 133 -43 92 -53 107 -74 107 -13
0 -26 -6 -29 -13z m81 -124 c14 -30 24 -58 21 -60 -3 -3 -16 7 -30 22 l-25 27
-4 -39 c-2 -21 -4 -3 -5 40 -2 90 6 92 43 10z"/>
<path d="M1417 1653 c-4 -3 -7 -93 -7 -199 l0 -193 30 -16 c30 -16 113 -20
170 -9 28 6 31 10 27 34 -12 56 -2 65 69 65 l65 0 11 -37 c6 -20 24 -46 40
-58 33 -24 64 -20 53 8 -4 9 -35 96 -70 193 -73 206 -80 219 -105 219 -24 0
-30 -10 -36 -60 -3 -21 -11 -54 -19 -72 -17 -39 -20 -24 -4 21 14 39 -4 64
-66 92 -39 18 -144 26 -158 12z m81 -40 c-20 -3 -28 -10 -28 -24 0 -10 -4 -19
-10 -19 -8 0 -8 23 -1 48 1 1 16 1 34 1 30 -2 30 -2 5 -6z m69 -48 c52 -35 55
-52 24 -150 l-29 -90 -39 -3 -38 -3 0 136 0 137 29 -6 c17 -4 40 -13 53 -21z
m151 18 c-1 -8 17 -57 27 -74 3 -4 -2 -6 -11 -5 -9 1 -21 11 -27 21 -9 16 -12
15 -29 -16 l-19 -34 5 43 c2 23 10 49 16 57 13 15 41 21 38 8z m6 -116 c21
-57 21 -57 -20 -57 -33 0 -36 2 -30 23 4 12 9 34 12 50 9 38 19 34 38 -16z
m-50 -72 c3 -8 12 -15 20 -15 8 0 17 -4 20 -8 3 -5 -15 -10 -41 -11 -25 0 -49
-3 -53 -6 -5 -3 -3 8 3 25 12 32 41 40 51 15z m108 0 c4 -5 8 -18 8 -28 0 -14
-5 -17 -22 -11 -31 9 -33 11 -20 27 7 8 8 17 4 21 -4 4 0 6 8 4 8 -1 18 -7 22
-13z m-301 -91 c7 -9 22 -20 34 -24 17 -7 15 -9 -12 -9 -29 -1 -53 19 -53 43
0 12 18 6 31 -10z"/>
<path d="M1900 1461 c0 -235 -2 -231 108 -231 95 0 128 21 189 124 16 28 6
151 -17 196 -39 76 -103 110 -210 110 l-70 0 0 -199z m90 150 c-25 -4 -36 -12
-41 -31 -6 -23 -7 -22 -8 8 -1 31 0 32 42 31 42 -2 42 -2 7 -8z m82 -42 c85
-45 74 -197 -17 -235 -19 -8 -46 -14 -60 -14 l-25 0 0 136 0 136 43 -7 c23 -4
50 -11 59 -16z m-92 -273 c6 -8 21 -17 33 -19 12 -3 2 -4 -23 -3 -34 1 -46 5
-48 19 -4 21 21 23 38 3z"/>
<path d="M2197 1653 c-4 -3 -7 -16 -7 -29 0 -37 43 -56 129 -57 l76 -2 -3 34
c-4 55 -15 61 -107 61 -45 0 -85 -3 -88 -7z"/>
<path d="M2437 1653 c-4 -3 -7 -92 -7 -198 l0 -191 30 -22 c44 -33 62 -29 56
11 -2 17 -5 32 -6 32 -1 0 -4 26 -6 59 -7 74 7 68 48 -22 16 -36 39 -73 51
-83 24 -20 67 -25 67 -9 0 6 -18 47 -41 91 l-41 82 27 -7 c32 -8 49 4 71 50
15 31 14 37 -6 91 -26 70 -33 79 -81 104 -38 19 -147 27 -162 12z m86 -40
c-23 -3 -33 -10 -38 -30 -3 -14 -9 -23 -12 -20 -3 3 -3 18 1 32 6 22 11 25 44
23 35 -1 36 -1 5 -5z m22 -33 c3 -5 15 -10 25 -10 20 0 40 -27 40 -54 0 -27
-38 -56 -72 -56 l-33 0 -1 65 c-1 56 2 65 17 65 10 0 21 -4 24 -10z m68 -140
c-21 -19 -33 -39 -33 -55 l0 -26 -33 25 c-38 29 -57 33 -57 11 0 -8 -4 -15
-10 -15 -5 0 -10 18 -10 40 0 42 9 50 30 25 18 -21 80 -18 110 5 38 30 39 23
3 -10z"/>
<path d="M2237 1483 c-2 -5 -3 -19 -3 -33 1 -34 55 -59 114 -53 l44 5 -7 37
c-4 20 -9 39 -11 43 -7 10 -132 10 -137 1z"/>
<path d="M2202 1308 c-18 -18 -15 -35 10 -58 18 -16 34 -20 83 -19 34 1 71 -2
83 -5 25 -8 27 0 11 57 l-10 37 -82 0 c-51 0 -88 -5 -95 -12z"/>
</g>
</svg>
